<?xml version="1.0" encoding="utf-8"?>
<!-- Generator: Adobe Illustrator 16.0.0, SVG Export Plug-In . SVG Version: 6.00 Build 0)  -->
<!DOCTYPE svg PUBLIC "-//W3C//DTD SVG 1.1//EN" "http://www.w3.org/Graphics/SVG/1.1/DTD/svg11.dtd">
<svg version="1.1" id="Layer_1" xmlns="http://www.w3.org/2000/svg" xmlns:xlink="http://www.w3.org/1999/xlink" x="0px" y="0px"
	 width="15px" height="5px" viewBox="0 0 15 5" enable-background="new 0 0 15 5" xml:space="preserve">
<path fill="#333333" d="M0,1.006h2v3.98h1v-3.98h2.001V0.011H0V1.006z"/>
<path fill="#333333" d="M6,0.011h1v4.979H6V0.011z"/>
<path fill="#333333" d="M12.002,3.991h0.999v0.998h-0.999V3.991z"/>
<path fill="#333333" d="M10.999,2.997h1.003v0.996h-1.003V2.997z"/>
<path fill="#333333" d="M9.002,0.011H8.003v4.979h0.999v-1.99h1.997V2.001H9.002V0.011z"/>
<path fill="#333333" d="M12.002,0.011h0.999v0.996h-0.999V0.011z"/>
<path fill="#333333" d="M10.999,1.006h1.003v0.996h-1.003V1.006z"/>
<path fill="#333333" d="M13.999,0.011H15v4.979h-1.001V0.011z"/>
</svg>
